# xmcd
#
# Track frame offsets:
#	150
#	14330
#	24225
#	34940
#	48680
#	59125
#	72420
#	84982
#	94935
#	107845
#	117902
#	125627
#	136117
#	148887
#	160730
#	171142
#	186167
#	199202
#
# Disc length: 2842 seconds
#
# Revision: 0
# Processed by: cddbd v1.5.2PL0 Copyright (c) Steve Scherf et al.
# Submitted via: audiograbber 1.83.01
#
DISCID=090b1812
DTITLE=COUNTRY DE LUXE - Selection Of Country CD 2-2
DYEAR=1995
DGENRE=Country
TTITLE0=LYNN ANDERSON - Cry
TTITLE1=RICK NELSON - Welcome To My World
TTITLE2=DOLLY PARTON - Honky Tonk Angels
TTITLE3=WILLIE NELSON - A Moment Isn't Very Long
TTITLE4=KENNY ROGERS - Ticket To Nowhere
TTITLE5=RAY CHARLES - Crying Time
TTITLE6=NANCY SINATRA and LEE HAZLEWOOD - Jackson
TTITLE7=PATSY CLINE - Seven Lonely Days
TTITLE8=JOHNNY RAY - Just Walking In The Rain
TTITLE9=FARON YOUNG - Hello Walls
TTITLE10=ROGER MILLER - Do Waka Do
TTITLE11=JIMMY RODGERS - Kisses Sweeter Than Wine
TTITLE12=JOHNNY CASH - Folsom City Blues
TTITLE13=GEORGE JONES - Crazy Arms
TTITLE14=JOHNNY PAYCHECK - A-11
TTITLE15=THE KINGSTON TRIO - Tom Dooley
TTITLE16=DON WILLIAMS - Ruby Tuesday
TTITLE17=FRANKIE LANE - Riders In The Sky
EXTD=
EXTT0=
EXTT1=
EXTT2=
EXTT3=
EXTT4=
EXTT5=
EXTT6=
EXTT7=
EXTT8=
EXTT9=
EXTT10=
EXTT11=
EXTT12=
EXTT13=
EXTT14=
EXTT15=
EXTT16=
EXTT17=
PLAYORDER=
